<?xml version="1.0" encoding="UTF-8"?>
<svg xmlns="http://www.w3.org/2000/svg" viewBox="0 0 819.41 449.27">
  <defs>
    <style>
      .cls-1 {
        fill: #9f3c96;
      }

      .cls-1, .cls-2 {
        stroke-width: 0px;
      }

      .cls-2 {
        fill: #8c3588;
      }
    </style>
  </defs>
  <g id="Layer_2" data-name="Layer 2">
    <g>
      <rect class="cls-2" x="56.41" y="410.19" width="299.58" height="38.27"/>
      <rect class="cls-2" x="421.61" y="231.15" width="352.55" height="38.27"/>
      <path class="cls-2" d="M542.18,448.99c8.95-.1,17.9-.11,26.85-.11,4.78,0,9.57,0,14.35.03L314.65,46.15l-31.83,21.24,254.5,381.45c1.89.05,3.69.16,4.85.15Z"/>
      <rect class="cls-2" x="-34.45" y="220.44" width="445.92" height="38.27" transform="translate(492.08 211.68) rotate(122.95)"/>
      <path class="cls-2" d="M528.85,13.93c-13.52.09-32.92.05-46.05-.07l290.08,434.77c16.11.04,31.62.09,46.12.18L528.85,13.93Z"/>
      <polygon class="cls-2" points="303.64 15.23 348.39 96.35 258.9 96.35 303.64 15.23"/>
      <polygon class="cls-2" points="76.11 379.11 124.01 448.46 28.2 448.46 76.11 379.11"/>
      <polygon class="cls-2" points="303.64 15.23 379.73 143.68 365.57 138.66 303.64 32.8 303.64 15.23"/>
      <polygon class="cls-2" points="303.64 15.23 219.52 156.54 273.72 120.58 306.99 30.54 303.64 15.23"/>
    </g>
    <polygon class="cls-2" points="303.64 15.23 435.35 227.04 395.41 189.54 303.64 15.23"/>
    <polygon class="cls-2" points="275.44 15.5 303.64 15.23 306.99 39.85 292.83 43.43 275.44 15.5"/>
    <polygon class="cls-2" points="790.8 449.07 819 449.07 819.41 449.07 806.7 430.37 788.93 446.28 790.8 449.07"/>
  </g>
  <g id="Layer_3" data-name="Layer 3">
    <g>
      <rect class="cls-1" x="28.2" y="410.46" width="299.58" height="38.27"/>
      <rect class="cls-1" x="393.41" y="231.42" width="352.55" height="38.27"/>
      <path class="cls-1" d="M513.97,449.26c8.95-.1,17.9-.11,26.85-.11,4.78,0,9.57,0,14.35.03L286.45,46.42l-31.83,21.24,254.5,381.45c1.89.05,3.69.16,4.85.15Z"/>
      <rect class="cls-1" x="-62.65" y="220.72" width="445.92" height="38.27" transform="translate(448.77 235.77) rotate(122.95)"/>
      <path class="cls-1" d="M500.65,14.2c-13.52.09-32.92.05-46.05-.07l290.08,434.77c16.11.04,31.62.09,46.12.18L500.65,14.2Z"/>
      <polygon class="cls-1" points="275.44 15.5 320.19 96.62 230.69 96.62 275.44 15.5"/>
      <polygon class="cls-1" points="47.9 379.38 95.81 448.73 0 448.73 47.9 379.38"/>
      <polygon class="cls-1" points="275.44 15.5 351.52 143.95 337.36 138.93 275.44 33.08 275.44 15.5"/>
      <polygon class="cls-1" points="275.44 15.5 191.32 156.82 245.52 120.85 278.79 30.81 275.44 15.5"/>
    </g>
    <polygon class="cls-1" points="275.44 15.5 409.7 231.15 316.22 118.31 275.44 15.5"/>
    <polygon class="cls-1" points="275.44 15.5 102.91 293.23 141.58 262.95 270.6 52.97 275.44 15.5"/>
  </g>
</svg>