<?xml version="1.0" encoding="UTF-8"?>
<svg id="Layer_1" xmlns="http://www.w3.org/2000/svg" viewBox="0 0 977 541.87">
  <defs>
    <style>
      .cls-1 {
        fill: #342468;
      }

      .cls-2 {
        fill: #4d2e8c;
      }
    </style>
  </defs>
  <polygon class="cls-1" points="354.4 35.08 327.28 34.28 334.12 48.37 354.4 47.12 354.4 35.08"/>
  <path class="cls-1" d="M960.04,526.36c-3.95-6.57-7.88-13.15-11.9-19.68-8.04-13.05-16.12-26.08-24.22-39.1-7.18-11.55-14.4-23.07-21.63-34.59-1.89-3.01-3.81-6.01-5.82-8.95-1.28-1.86-2.89-3.5-4.09-5.41-5.84-9.29-11.56-18.66-17.39-27.96-8.23-13.14-16.5-26.26-24.8-39.37-7.37-11.64-14.81-23.23-22.19-34.86-.53-.83-.8-1.81-1.43-3.27h66.87c0-14-.05-27.59.04-41.18.02-2.67-1.01-3.3-3.55-3.29-29.49.11-58.98.08-88.47.18-2.38,0-3.86-.74-5.11-2.76-6.37-10.4-12.83-20.74-19.31-31.08-8.1-12.92-16.24-25.81-24.36-38.72-8.12-12.91-16.24-25.81-24.37-38.72-8.45-13.42-16.9-26.84-25.35-40.26-7.84-12.46-15.73-24.9-23.51-37.4-6.72-10.8-13.29-21.69-19.99-32.5-7.11-11.47-14.26-22.91-21.46-34.32-.48-.76-1.48-1.68-2.26-1.7-4.37-.12-8.78-.25-13.13.1-13.17,1.08-26.33,2.37-39.49,3.6-2.01.19-4.02.48-6.26.75,5.9,9.87,11.58,19.45,17.34,28.99,8.11,13.43,16.23,26.85,24.44,40.21,7.62,12.39,15.34,24.72,23.06,37.04,8.24,13.14,16.53,26.25,24.79,39.38,7.98,12.68,15.94,25.38,23.93,38.06,8.4,13.35,16.81,26.69,25.24,40.02,5.59,8.84,11.23,17.65,16.83,26.49.43.68.7,1.46,1.24,2.59-1.69.09-2.87.21-4.06.21-71.02.04-142.05.05-213.07.14-2.22,0-3.48-.81-4.63-2.6-6.67-10.42-13.42-20.79-20.17-31.15-8.52-13.06-17.07-26.11-25.6-39.16-8.39-12.84-16.78-25.68-25.19-38.51-6.45-9.85-12.91-19.68-19.38-29.51-1.49-2.26-3.07-4.45-4.55-6.72-9.61-14.74-18.84-29.74-28.91-44.16-8.66-12.41-18.52-23.98-27.32-36.31-1.88-2.64-3.83-4.53-6.14-5.65-3.11.04-6.22.11-9.32.28-.52.03-1-.11-1.42-.34-.65.37-1.22.89-1.73,1.68-5.83,8.99-11.8,17.88-17.63,26.88-8.43,13.02-16.79,26.09-25.16,39.14-8.37,13.06-16.72,26.14-25.08,39.21-8.4,13.14-16.81,26.29-25.22,39.43-8.36,13.07-16.72,26.13-25.08,39.19-8.17,12.77-16.34,25.55-24.52,38.32-8.74,13.65-17.48,27.3-26.22,40.95-3.48,5.43-6.94,10.87-10.41,16.3-8.97,14.02-17.96,28.03-26.93,42.06-7.7,12.04-15.39,24.09-23.09,36.12-8.41,13.14-16.83,26.27-25.24,39.41-3.85,6.02-7.69,12.05-11.54,18.07-8.55,13.36-17.09,26.72-25.67,40.06-4,6.22-8.1,12.39-12.13,18.59-3.4,5.23-6.78,10.49-10.39,16.08,1.05.18,1.85.41,2.65.43,19.68.37,39.37.92,59.05,1.03,34.72.19,69.45.06,104.17.15,36.56.1,73.11.33,109.67.44,32.46.09,64.92.06,97.37.16,2.33,0,2.92-.64,2.86-2.96-.26-10.2-.33-20.4-.45-30.61-.04-3.64,0-7.29,0-11.28-94.62-.25-188.51-.5-283.04-.75.88-1.52,1.28-2.27,1.73-2.99,2.57-4.04,5.15-8.07,7.73-12.11,8.77-13.73,17.54-27.46,26.31-41.19,7.79-12.19,15.58-24.37,23.37-36.55,8.31-12.99,16.63-25.98,24.94-38.97,8.27-12.91,16.55-25.82,24.81-38.74,8.36-13.06,16.7-26.13,25.06-39.2,8.17-12.77,16.33-25.55,24.51-38.31,8.74-13.65,17.5-27.29,26.24-40.94,7.85-12.25,15.67-24.52,23.54-36.76,5.98-9.31,11.99-18.61,18.01-27.9,1.79-2.76,3.64-5.47,5.7-8.56.87,1.13,1.54,1.9,2.09,2.74,7.96,12.18,15.9,24.38,23.86,36.57,8.63,13.2,17.28,26.39,25.91,39.59,8.39,12.84,16.75,25.7,25.14,38.54,9.77,14.96,19.57,29.91,29.33,44.87,7.19,11.01,14.35,22.05,21.54,33.07,9.34,14.3,18.72,28.58,28.06,42.88,7.48,11.45,14.95,22.92,22.39,34.4,8.81,13.6,17.58,27.23,26.39,40.83,3.74,5.78,7.53,11.53,11.31,17.28,9.33,14.2,18.67,28.41,28.02,42.6,7.1,10.77,14.3,21.48,21.26,32.35,1.23,1.93,2.42,2.48,4.56,2.48,17.19-.05,34.38.02,51.57.05,3.18,0,6.36,0,9.94,0-.63-1.27-.96-2.16-1.47-2.94-4.19-6.52-8.4-13.04-12.64-19.53-8.52-13.06-17.06-26.11-25.6-39.16-8.58-13.12-17.18-26.24-25.76-39.36-8.1-12.4-16.18-24.81-24.29-37.2-8.64-13.2-17.27-26.39-25.95-39.56-7.72-11.72-15.49-23.4-23.2-35.13-.53-.8-.77-1.8-1.38-3.26,2.2,0,3.83,0,5.45,0,52.61,0,105.23-.01,157.84-.02,17.54,0,35.08-.04,52.61.06,1.28,0,3.12.56,3.74,1.49,4.64,7.06,9.03,14.29,13.52,21.45,8.15,12.99,16.32,25.97,24.48,38.95,8.12,12.91,16.24,25.82,24.37,38.72,8.12,12.91,16.26,25.81,24.37,38.72,8.12,12.91,16.2,25.85,24.33,38.75,5.62,8.92,11.29,17.81,16.94,26.72,1.87,2.95,3.95,5.78,5.55,8.87.96,1.85,2.02,2.39,4.02,2.39,19.28-.05,38.56.02,57.85.05.91,0,1.82,0,3.08,0-.57-1.25-.88-2.15-1.36-2.95Z"/>
  <path class="cls-2" d="M383.39,484.03c0,3.99-.03,7.64,0,11.28.11,10.2.18,20.41.45,30.61.06,2.31-.54,2.96-2.86,2.96-32.46-.11-64.92-.07-97.37-.16-36.56-.1-73.11-.34-109.67-.44-34.72-.09-69.45.04-104.17-.15-19.68-.11-39.37-.66-59.05-1.03-.8-.02-1.6-.25-2.65-.43,3.61-5.6,6.99-10.85,10.39-16.08,4.03-6.2,8.13-12.37,12.13-18.59,8.58-13.34,17.12-26.7,25.67-40.06,3.85-6.02,7.69-12.05,11.54-18.07,8.41-13.14,16.83-26.27,25.24-39.41,7.7-12.04,15.39-24.09,23.09-36.12,8.97-14.02,17.95-28.04,26.93-42.06,3.48-5.43,6.94-10.87,10.41-16.3,8.74-13.65,17.48-27.3,26.22-40.95,8.18-12.77,16.35-25.55,24.52-38.32,8.36-13.06,16.72-26.13,25.08-39.19,8.41-13.14,16.81-26.29,25.22-39.43,8.36-13.07,16.7-26.15,25.08-39.21,8.37-13.06,16.73-26.13,25.16-39.14,5.82-8.99,11.8-17.89,17.63-26.88,1.22-1.88,2.74-2.28,4.91-2.59,6.23-.88,10.08,1.53,13.7,6.61,8.79,12.33,18.66,23.89,27.32,36.31,10.06,14.42,19.3,29.42,28.91,44.16,1.48,2.26,3.06,4.46,4.55,6.72,6.47,9.83,12.93,19.67,19.38,29.51,8.4,12.83,16.79,25.67,25.19,38.51,8.54,13.05,17.09,26.09,25.6,39.16,6.76,10.36,13.5,20.73,20.17,31.15,1.15,1.79,2.4,2.6,4.63,2.6,71.02-.08,142.05-.1,213.07-.14,1.19,0,2.37-.12,4.06-.21-.54-1.14-.81-1.91-1.24-2.59-5.6-8.84-11.24-17.65-16.83-26.49-8.43-13.33-16.84-26.67-25.24-40.02-7.98-12.68-15.95-25.38-23.93-38.06-8.26-13.13-16.55-26.24-24.79-39.38-7.72-12.32-15.45-24.65-23.06-37.04-8.21-13.36-16.33-26.78-24.44-40.21-5.76-9.54-11.44-19.12-17.34-28.99,2.24-.27,4.24-.56,6.26-.75,13.16-1.23,26.32-2.52,39.49-3.6,4.35-.36,8.76-.22,13.13-.1.78.02,1.78.93,2.26,1.7,7.2,11.41,14.36,22.85,21.46,34.32,6.7,10.81,13.27,21.7,19.99,32.5,7.78,12.5,15.67,24.93,23.51,37.4,8.45,13.42,16.9,26.84,25.35,40.26,8.12,12.91,16.24,25.81,24.37,38.72,8.12,12.9,16.26,25.8,24.36,38.72,6.48,10.33,12.94,20.68,19.31,31.08,1.24,2.03,2.73,2.77,5.11,2.76,29.49-.1,58.98-.07,88.47-.18,2.54,0,3.57.62,3.55,3.29-.09,13.59-.04,27.18-.04,41.18h-66.87c.63,1.46.91,2.44,1.43,3.27,7.38,11.63,14.82,23.22,22.19,34.86,8.3,13.1,16.57,26.22,24.8,39.37,5.83,9.3,11.55,18.67,17.39,27.96,1.2,1.91,2.82,3.54,4.09,5.41,2.01,2.94,3.93,5.93,5.82,8.95,7.23,11.52,14.45,23.05,21.63,34.59,8.1,13.02,16.18,26.05,24.22,39.1,4.02,6.53,7.96,13.11,11.9,19.68.48.8.79,1.7,1.36,2.95-1.26,0-2.17,0-3.08,0-19.28-.03-38.57-.09-57.85-.05-2,0-3.06-.54-4.02-2.39-1.6-3.08-3.68-5.92-5.55-8.87-5.65-8.9-11.32-17.79-16.94-26.72-8.13-12.91-16.21-25.84-24.33-38.75-8.12-12.91-16.25-25.81-24.37-38.72-8.12-12.91-16.25-25.81-24.37-38.72-8.17-12.98-16.33-25.96-24.48-38.95-4.49-7.16-8.88-14.39-13.52-21.45-.61-.93-2.46-1.49-3.74-1.49-17.54-.09-35.08-.06-52.61-.06-52.61,0-105.23.01-157.84.02-1.63,0-3.26,0-5.45,0,.61,1.46.85,2.45,1.38,3.26,7.71,11.72,15.49,23.4,23.2,35.13,8.67,13.17,17.31,26.36,25.95,39.56,8.11,12.39,16.19,24.8,24.29,37.2,8.58,13.13,17.18,26.24,25.76,39.36,8.54,13.05,17.08,26.1,25.6,39.16,4.24,6.5,8.44,13.01,12.64,19.53.5.78.84,1.67,1.47,2.94-3.58,0-6.76,0-9.94,0-17.19-.03-34.38-.1-51.57-.05-2.14,0-3.33-.55-4.56-2.48-6.95-10.87-14.16-21.57-21.26-32.35-9.35-14.19-18.68-28.39-28.02-42.6-3.78-5.75-7.57-11.5-11.31-17.28-8.81-13.6-17.58-27.23-26.39-40.83-7.44-11.48-14.91-22.95-22.39-34.4-9.34-14.3-18.72-28.58-28.06-42.88-7.2-11.01-14.35-22.05-21.54-33.07-9.77-14.96-19.56-29.91-29.33-44.87-8.39-12.84-16.75-25.7-25.14-38.54-8.63-13.2-17.28-26.39-25.91-39.59-7.96-12.18-15.9-24.38-23.86-36.57-.55-.84-1.22-1.61-2.09-2.74-2.06,3.09-3.92,5.8-5.7,8.56-6.02,9.29-12.03,18.59-18.01,27.9-7.86,12.24-15.69,24.51-23.54,36.76-8.74,13.65-17.5,27.29-26.24,40.94-8.18,12.77-16.34,25.54-24.51,38.31-8.35,13.07-16.7,26.14-25.06,39.2-8.27,12.92-16.54,25.83-24.81,38.74-8.32,12.99-16.63,25.98-24.94,38.97-7.79,12.18-15.59,24.36-23.37,36.55-8.77,13.73-17.54,27.46-26.31,41.19-2.58,4.04-5.16,8.07-7.73,12.11-.45.72-.85,1.47-1.73,2.99,94.54.25,188.43.5,283.04.75Z"/>
</svg>